# xmcd CD database file
#
# Track frame offsets:
#	150
#	13036
#	43639
#	59535
#	72546
#	88877
#	106379
#	137121
#	153821
#	168498
#	187363
#	210208
#	226037
#	239414
#
# Disc length: 3398 seconds
#
# Revision: 0
# Processed by: cddbd v1.5.2PL0 Copyright (c) Steve Scherf et al.
# Submitted via: CDex 1.70beta2
#
DISCID=c20d440e
DTITLE=Bluesmenu - Za sciana rodzi sie blues
DYEAR=2004
DGENRE=Blues
TTITLE0=O narodzinach i smierci bluesa
TTITLE1=W ten niedzielny piekny ranek
TTITLE2=Wybranki moje
TTITLE3=Zapukaj do moich drzwi
TTITLE4=Wciaz mi Cie malo
TTITLE5=Juz nie placze za Toba
TTITLE6=Blues o drugiej w nocy
TTITLE7=Boogie na tron
TTITLE8=Piesn podkarpackiego wloczegi
TTITLE9=Zabierz swoje sukienki
TTITLE10=Ty i ja
TTITLE11=Tylko nie mow braciszku rodzicom
TTITLE12=Gdzie stoi moj stary dom
TTITLE13=Jump dla sasiadki ze skrzynka piwa w tle
EXTD=YEAR: 2004
EXTT0=
EXTT1=
EXTT2=
EXTT3=
EXTT4=
EXTT5=
EXTT6=
EXTT7=
EXTT8=
EXTT9=
EXTT10=
EXTT11=
EXTT12=
EXTT13=
PLAYORDER=
